<?xml version="1.0" encoding="utf-8"?>
<svg viewBox="209 -3 86 86" xmlns="http://www.w3.org/2000/svg">
  <g transform="matrix(1, 0, 0, 1, 0, 7.105427357601002e-15)">
    <path d="M 213.883 7.245 C 213.883 4.23 216.39 1.783 219.482 1.783 L 284.052 1.783 C 287.144 1.783 289.651 4.23 289.651 7.245 L 289.651 72.569 C 289.651 75.586 287.144 78.031 284.052 78.031 L 219.482 78.031 C 216.39 78.031 213.883 75.586 213.883 72.569 L 213.883 7.245 L 213.883 7.245 Z" style="fill-opacity: 1; fill-rule: nonzero; fill: none; stroke: rgb(255, 255, 255); stroke-width: 2.94456px; stroke-linecap: round; stroke-linejoin: round;" id="path14"/>
    <path d="M 236.851 65.611 L 236.851 31.181 L 225.407 31.181 L 225.407 65.611 L 236.851 65.611 L 236.851 65.611 Z M 231.129 26.48 C 235.119 26.48 237.603 23.836 237.603 20.532 C 237.529 17.153 235.119 14.583 231.204 14.583 C 227.29 14.583 224.73 17.153 224.73 20.532 C 224.73 23.836 227.214 26.48 231.054 26.48 L 231.128 26.48 L 231.129 26.48 Z" style="fill-opacity: 1; fill-rule: evenodd; stroke: rgb(255, 255, 255); stroke-width: 2.94456px; stroke-linecap: round; stroke-linejoin: round; fill: none;" id="path28"/>
    <path d="M 243.183 65.611 L 254.627 65.611 L 254.627 46.384 C 254.627 45.355 254.701 44.327 255.003 43.591 C 255.831 41.535 257.713 39.406 260.875 39.406 C 265.016 39.406 266.673 42.563 266.673 47.192 L 266.673 65.611 L 278.115 65.611 L 278.115 45.869 C 278.115 35.294 272.47 30.373 264.941 30.373 C 258.767 30.373 256.133 33.823 254.627 36.174 L 254.627 31.181 L 243.183 31.181 C 243.334 34.411 243.183 65.611 243.183 65.611 Z" style="fill-opacity: 1; fill-rule: evenodd; stroke: rgb(255, 255, 255); stroke-width: 2.94456px; stroke-linecap: round; stroke-linejoin: round; fill: none;" id="path30"/>
  </g>
</svg>